# xmcd CD database file
#
# Track frame offsets:
#	150
#	13642
#	26237
#	40480
#	52565
#	65060
#	77080
#	91807
#	103330
#	111972
#	127910
#	138950
#	148532
#	163730
#	177160
#	187972
#	199582
#	215802
#	230965
#	241412
#
# Disc length: 3399 seconds
#
# Revision: 0
# Processed by: cddbd v1.4PL0 Copyright (c) Steve Scherf et al.
# Submitted via: CDex 1.50beta9
#
DISCID=1e0d4514
DTITLE=GLORIA - ALL THE BEST
DYEAR=1900
DGENRE=Country
TTITLE0=Just For Today
TTITLE1=Pretty Brown Eyes
TTITLE2=If I Did't Have A Dime
TTITLE3=Further Down The Line
TTITLE4=Shame On Me
TTITLE5=There Goes My Everyting
TTITLE6=More Than yesterday
TTITLE7=Massachussetts
TTITLE8=Before The Next Teardrop Falls
TTITLE9=The Old Rugged Cross
TTITLE10=Heaven's Just A Sin Away
TTITLE11=The answer To Everthing
TTITLE12=My Side of The Story
TTITLE13=I Don't Miss You Like I Used To
TTITLE14=Why'd You come In here Lookin' Like That
TTITLE15=Terry
TTITLE16=Bedtime Story
TTITLE17=Mamma He's Crazy!
TTITLE18=Tippy Toe
TTITLE19=One Day At A Time
EXTD=
EXTT0=
EXTT1=
EXTT2=
EXTT3=
EXTT4=
EXTT5=
EXTT6=
EXTT7=
EXTT8=
EXTT9=
EXTT10=
EXTT11=
EXTT12=
EXTT13=
EXTT14=
EXTT15=
EXTT16=
EXTT17=
EXTT18=
EXTT19=
PLAYORDER=
